<svg xmlns="http://www.w3.org/2000/svg" version="1.1" xmlns:xlink="http://www.w3.org/1999/xlink" xmlns:svgjs="http://svgjs.dev/svgjs" width="1440" height="560" preserveAspectRatio="none" viewBox="0 0 1440 560"><g mask="url(&quot;#SvgjsMask1511&quot;)" fill="none"><rect width="1440" height="560" x="0" y="0" fill="#0e2a47"></rect><path d="M33.02 355.18L87.58 386.68L87.58 449.68L33.02 481.18L-21.54 449.68L-21.54 386.68zM87.58 449.68L142.14 481.18L142.14 544.18L87.58 575.68L33.02 544.18L33.02 481.18zM33.02 544.18L87.58 575.68L87.58 638.68L33.02 670.18L-21.54 638.68L-21.54 575.68zM142.14 -22.82L196.7 8.68L196.7 71.68L142.14 103.18L87.58 71.68L87.58 8.68zM142.14 166.18L196.7 197.68L196.7 260.68L142.14 292.18L87.58 260.68L87.58 197.68zM305.83 449.68L360.39 481.18L360.39 544.18L305.83 575.68L251.26 544.18L251.26 481.18zM360.39 -22.82L414.95 8.68L414.95 71.68L360.39 103.18L305.83 71.68L305.83 8.68zM414.95 260.68L469.51 292.18L469.51 355.18L414.95 386.68L360.39 355.18L360.39 292.18zM633.19 71.68L687.75 103.18L687.75 166.18L633.19 197.68L578.63 166.18L578.63 103.18zM633.19 449.68L687.75 481.18L687.75 544.18L633.19 575.68L578.63 544.18L578.63 481.18zM687.75 -22.82L742.31 8.68L742.31 71.68L687.75 103.18L633.19 71.68L633.19 8.68zM742.31 71.68L796.88 103.18L796.88 166.18L742.31 197.68L687.75 166.18L687.75 103.18zM687.75 544.18L742.31 575.68L742.31 638.68L687.75 670.18L633.19 638.68L633.19 575.68zM796.88 355.18L851.44 386.68L851.44 449.68L796.88 481.18L742.31 449.68L742.31 386.68zM906 166.18L960.56 197.68L960.56 260.68L906 292.18L851.44 260.68L851.44 197.68zM960.56 260.68L1015.12 292.18L1015.12 355.18L960.56 386.68L906 355.18L906 292.18zM906 355.18L960.56 386.68L960.56 449.68L906 481.18L851.44 449.68L851.44 386.68zM1233.37 544.18L1287.93 575.68L1287.93 638.68L1233.37 670.18L1178.8 638.68L1178.8 575.68zM1397.05 260.68L1451.61 292.18L1451.61 355.18L1397.05 386.68L1342.49 355.18L1342.49 292.18zM1342.49 544.18L1397.05 575.68L1397.05 638.68L1342.49 670.18L1287.93 638.68L1287.93 575.68z" stroke="url(&quot;#SvgjsLinearGradient1512&quot;)" stroke-width="2"></path><path d="M26.72 355.18 a6.3 6.3 0 1 0 12.6 0 a6.3 6.3 0 1 0 -12.6 0zM81.28 386.68 a6.3 6.3 0 1 0 12.6 0 a6.3 6.3 0 1 0 -12.6 0zM81.28 449.68 a6.3 6.3 0 1 0 12.6 0 a6.3 6.3 0 1 0 -12.6 0zM26.72 481.18 a6.3 6.3 0 1 0 12.6 0 a6.3 6.3 0 1 0 -12.6 0zM-27.84 449.68 a6.3 6.3 0 1 0 12.6 0 a6.3 6.3 0 1 0 -12.6 0zM-27.84 386.68 a6.3 6.3 0 1 0 12.6 0 a6.3 6.3 0 1 0 -12.6 0zM135.84 481.18 a6.3 6.3 0 1 0 12.6 0 a6.3 6.3 0 1 0 -12.6 0zM135.84 544.18 a6.3 6.3 0 1 0 12.6 0 a6.3 6.3 0 1 0 -12.6 0zM81.28 575.68 a6.3 6.3 0 1 0 12.6 0 a6.3 6.3 0 1 0 -12.6 0zM26.72 544.18 a6.3 6.3 0 1 0 12.6 0 a6.3 6.3 0 1 0 -12.6 0zM81.28 638.68 a6.3 6.3 0 1 0 12.6 0 a6.3 6.3 0 1 0 -12.6 0zM26.72 670.18 a6.3 6.3 0 1 0 12.6 0 a6.3 6.3 0 1 0 -12.6 0zM-27.84 638.68 a6.3 6.3 0 1 0 12.6 0 a6.3 6.3 0 1 0 -12.6 0zM-27.84 575.68 a6.3 6.3 0 1 0 12.6 0 a6.3 6.3 0 1 0 -12.6 0zM135.84 -22.82 a6.3 6.3 0 1 0 12.6 0 a6.3 6.3 0 1 0 -12.6 0zM190.4 8.68 a6.3 6.3 0 1 0 12.6 0 a6.3 6.3 0 1 0 -12.6 0zM190.4 71.68 a6.3 6.3 0 1 0 12.6 0 a6.3 6.3 0 1 0 -12.6 0zM135.84 103.18 a6.3 6.3 0 1 0 12.6 0 a6.3 6.3 0 1 0 -12.6 0zM81.28 71.68 a6.3 6.3 0 1 0 12.6 0 a6.3 6.3 0 1 0 -12.6 0zM81.28 8.68 a6.3 6.3 0 1 0 12.6 0 a6.3 6.3 0 1 0 -12.6 0zM135.84 166.18 a6.3 6.3 0 1 0 12.6 0 a6.3 6.3 0 1 0 -12.6 0zM190.4 197.68 a6.3 6.3 0 1 0 12.6 0 a6.3 6.3 0 1 0 -12.6 0zM190.4 260.68 a6.3 6.3 0 1 0 12.6 0 a6.3 6.3 0 1 0 -12.6 0zM135.84 292.18 a6.3 6.3 0 1 0 12.6 0 a6.3 6.3 0 1 0 -12.6 0zM81.28 260.68 a6.3 6.3 0 1 0 12.6 0 a6.3 6.3 0 1 0 -12.6 0zM81.28 197.68 a6.3 6.3 0 1 0 12.6 0 a6.3 6.3 0 1 0 -12.6 0zM299.53 449.68 a6.3 6.3 0 1 0 12.6 0 a6.3 6.3 0 1 0 -12.6 0zM354.09 481.18 a6.3 6.3 0 1 0 12.6 0 a6.3 6.3 0 1 0 -12.6 0zM354.09 544.18 a6.3 6.3 0 1 0 12.6 0 a6.3 6.3 0 1 0 -12.6 0zM299.53 575.68 a6.3 6.3 0 1 0 12.6 0 a6.3 6.3 0 1 0 -12.6 0zM244.96 544.18 a6.3 6.3 0 1 0 12.6 0 a6.3 6.3 0 1 0 -12.6 0zM244.96 481.18 a6.3 6.3 0 1 0 12.6 0 a6.3 6.3 0 1 0 -12.6 0zM354.09 -22.82 a6.3 6.3 0 1 0 12.6 0 a6.3 6.3 0 1 0 -12.6 0zM408.65 8.68 a6.3 6.3 0 1 0 12.6 0 a6.3 6.3 0 1 0 -12.6 0zM408.65 71.68 a6.3 6.3 0 1 0 12.6 0 a6.3 6.3 0 1 0 -12.6 0zM354.09 103.18 a6.3 6.3 0 1 0 12.6 0 a6.3 6.3 0 1 0 -12.6 0zM299.53 71.68 a6.3 6.3 0 1 0 12.6 0 a6.3 6.3 0 1 0 -12.6 0zM299.53 8.68 a6.3 6.3 0 1 0 12.6 0 a6.3 6.3 0 1 0 -12.6 0zM408.65 260.68 a6.3 6.3 0 1 0 12.6 0 a6.3 6.3 0 1 0 -12.6 0zM463.21 292.18 a6.3 6.3 0 1 0 12.6 0 a6.3 6.3 0 1 0 -12.6 0zM463.21 355.18 a6.3 6.3 0 1 0 12.6 0 a6.3 6.3 0 1 0 -12.6 0zM408.65 386.68 a6.3 6.3 0 1 0 12.6 0 a6.3 6.3 0 1 0 -12.6 0zM354.09 355.18 a6.3 6.3 0 1 0 12.6 0 a6.3 6.3 0 1 0 -12.6 0zM354.09 292.18 a6.3 6.3 0 1 0 12.6 0 a6.3 6.3 0 1 0 -12.6 0zM626.89 71.68 a6.3 6.3 0 1 0 12.6 0 a6.3 6.3 0 1 0 -12.6 0zM681.45 103.18 a6.3 6.3 0 1 0 12.6 0 a6.3 6.3 0 1 0 -12.6 0zM681.45 166.18 a6.3 6.3 0 1 0 12.6 0 a6.3 6.3 0 1 0 -12.6 0zM626.89 197.68 a6.3 6.3 0 1 0 12.6 0 a6.3 6.3 0 1 0 -12.6 0zM572.33 166.18 a6.3 6.3 0 1 0 12.6 0 a6.3 6.3 0 1 0 -12.6 0zM572.33 103.18 a6.3 6.3 0 1 0 12.6 0 a6.3 6.3 0 1 0 -12.6 0zM626.89 449.68 a6.3 6.3 0 1 0 12.6 0 a6.3 6.3 0 1 0 -12.6 0zM681.45 481.18 a6.3 6.3 0 1 0 12.6 0 a6.3 6.3 0 1 0 -12.6 0zM681.45 544.18 a6.3 6.3 0 1 0 12.6 0 a6.3 6.3 0 1 0 -12.6 0zM626.89 575.68 a6.3 6.3 0 1 0 12.6 0 a6.3 6.3 0 1 0 -12.6 0zM572.33 544.18 a6.3 6.3 0 1 0 12.6 0 a6.3 6.3 0 1 0 -12.6 0zM572.33 481.18 a6.3 6.3 0 1 0 12.6 0 a6.3 6.3 0 1 0 -12.6 0zM681.45 -22.82 a6.3 6.3 0 1 0 12.6 0 a6.3 6.3 0 1 0 -12.6 0zM736.01 8.68 a6.3 6.3 0 1 0 12.6 0 a6.3 6.3 0 1 0 -12.6 0zM736.01 71.68 a6.3 6.3 0 1 0 12.6 0 a6.3 6.3 0 1 0 -12.6 0zM626.89 8.68 a6.3 6.3 0 1 0 12.6 0 a6.3 6.3 0 1 0 -12.6 0zM790.58 103.18 a6.3 6.3 0 1 0 12.6 0 a6.3 6.3 0 1 0 -12.6 0zM790.58 166.18 a6.3 6.3 0 1 0 12.6 0 a6.3 6.3 0 1 0 -12.6 0zM736.01 197.68 a6.3 6.3 0 1 0 12.6 0 a6.3 6.3 0 1 0 -12.6 0zM736.01 575.68 a6.3 6.3 0 1 0 12.6 0 a6.3 6.3 0 1 0 -12.6 0zM736.01 638.68 a6.3 6.3 0 1 0 12.6 0 a6.3 6.3 0 1 0 -12.6 0zM681.45 670.18 a6.3 6.3 0 1 0 12.6 0 a6.3 6.3 0 1 0 -12.6 0zM626.89 638.68 a6.3 6.3 0 1 0 12.6 0 a6.3 6.3 0 1 0 -12.6 0zM790.58 355.18 a6.3 6.3 0 1 0 12.6 0 a6.3 6.3 0 1 0 -12.6 0zM845.14 386.68 a6.3 6.3 0 1 0 12.6 0 a6.3 6.3 0 1 0 -12.6 0zM845.14 449.68 a6.3 6.3 0 1 0 12.6 0 a6.3 6.3 0 1 0 -12.6 0zM790.58 481.18 a6.3 6.3 0 1 0 12.6 0 a6.3 6.3 0 1 0 -12.6 0zM736.01 449.68 a6.3 6.3 0 1 0 12.6 0 a6.3 6.3 0 1 0 -12.6 0zM736.01 386.68 a6.3 6.3 0 1 0 12.6 0 a6.3 6.3 0 1 0 -12.6 0zM899.7 166.18 a6.3 6.3 0 1 0 12.6 0 a6.3 6.3 0 1 0 -12.6 0zM954.26 197.68 a6.3 6.3 0 1 0 12.6 0 a6.3 6.3 0 1 0 -12.6 0zM954.26 260.68 a6.3 6.3 0 1 0 12.6 0 a6.3 6.3 0 1 0 -12.6 0zM899.7 292.18 a6.3 6.3 0 1 0 12.6 0 a6.3 6.3 0 1 0 -12.6 0zM845.14 260.68 a6.3 6.3 0 1 0 12.6 0 a6.3 6.3 0 1 0 -12.6 0zM845.14 197.68 a6.3 6.3 0 1 0 12.6 0 a6.3 6.3 0 1 0 -12.6 0zM1008.82 292.18 a6.3 6.3 0 1 0 12.6 0 a6.3 6.3 0 1 0 -12.6 0zM1008.82 355.18 a6.3 6.3 0 1 0 12.6 0 a6.3 6.3 0 1 0 -12.6 0zM954.26 386.68 a6.3 6.3 0 1 0 12.6 0 a6.3 6.3 0 1 0 -12.6 0zM899.7 355.18 a6.3 6.3 0 1 0 12.6 0 a6.3 6.3 0 1 0 -12.6 0zM954.26 449.68 a6.3 6.3 0 1 0 12.6 0 a6.3 6.3 0 1 0 -12.6 0zM899.7 481.18 a6.3 6.3 0 1 0 12.6 0 a6.3 6.3 0 1 0 -12.6 0zM1227.07 544.18 a6.3 6.3 0 1 0 12.6 0 a6.3 6.3 0 1 0 -12.6 0zM1281.63 575.68 a6.3 6.3 0 1 0 12.6 0 a6.3 6.3 0 1 0 -12.6 0zM1281.63 638.68 a6.3 6.3 0 1 0 12.6 0 a6.3 6.3 0 1 0 -12.6 0zM1227.07 670.18 a6.3 6.3 0 1 0 12.6 0 a6.3 6.3 0 1 0 -12.6 0zM1172.5 638.68 a6.3 6.3 0 1 0 12.6 0 a6.3 6.3 0 1 0 -12.6 0zM1172.5 575.68 a6.3 6.3 0 1 0 12.6 0 a6.3 6.3 0 1 0 -12.6 0zM1390.75 260.68 a6.3 6.3 0 1 0 12.6 0 a6.3 6.3 0 1 0 -12.6 0zM1445.31 292.18 a6.3 6.3 0 1 0 12.6 0 a6.3 6.3 0 1 0 -12.6 0zM1445.31 355.18 a6.3 6.3 0 1 0 12.6 0 a6.3 6.3 0 1 0 -12.6 0zM1390.75 386.68 a6.3 6.3 0 1 0 12.6 0 a6.3 6.3 0 1 0 -12.6 0zM1336.19 355.18 a6.3 6.3 0 1 0 12.6 0 a6.3 6.3 0 1 0 -12.6 0zM1336.19 292.18 a6.3 6.3 0 1 0 12.6 0 a6.3 6.3 0 1 0 -12.6 0zM1336.19 544.18 a6.3 6.3 0 1 0 12.6 0 a6.3 6.3 0 1 0 -12.6 0zM1390.75 575.68 a6.3 6.3 0 1 0 12.6 0 a6.3 6.3 0 1 0 -12.6 0zM1390.75 638.68 a6.3 6.3 0 1 0 12.6 0 a6.3 6.3 0 1 0 -12.6 0zM1336.19 670.18 a6.3 6.3 0 1 0 12.6 0 a6.3 6.3 0 1 0 -12.6 0z" fill="url(&quot;#SvgjsLinearGradient1512&quot;)"></path><path d="M28.02 121.33L77.38 149.83L77.38 206.83L28.02 235.33L-21.34 206.83L-21.34 149.83zM28.02 463.33L77.38 491.83L77.38 548.83L28.02 577.33L-21.34 548.83L-21.34 491.83zM176.11 377.83L225.48 406.33L225.48 463.33L176.11 491.83L126.75 463.33L126.75 406.33zM274.84 206.83L324.21 235.33L324.21 292.33L274.84 320.83L225.48 292.33L225.48 235.33zM225.48 292.33L274.84 320.83L274.84 377.83L225.48 406.33L176.11 377.83L176.11 320.83zM373.57 35.83L422.94 64.33L422.94 121.33L373.57 149.83L324.21 121.33L324.21 64.33zM324.21 121.33L373.57 149.83L373.57 206.83L324.21 235.33L274.84 206.83L274.84 149.83zM324.21 463.33L373.57 491.83L373.57 548.83L324.21 577.33L274.84 548.83L274.84 491.83zM373.57 548.83L422.94 577.33L422.94 634.33L373.57 662.83L324.21 634.33L324.21 577.33zM422.94 121.33L472.3 149.83L472.3 206.83L422.94 235.33L373.57 206.83L373.57 149.83zM571.03 206.83L620.4 235.33L620.4 292.33L571.03 320.83L521.67 292.33L521.67 235.33zM521.67 463.33L571.03 491.83L571.03 548.83L521.67 577.33L472.3 548.83L472.3 491.83zM669.76 206.83L719.13 235.33L719.13 292.33L669.76 320.83L620.4 292.33L620.4 235.33zM768.49 35.83L817.86 64.33L817.86 121.33L768.49 149.83L719.13 121.33L719.13 64.33zM719.13 463.33L768.49 491.83L768.49 548.83L719.13 577.33L669.76 548.83L669.76 491.83zM867.22 206.83L916.59 235.33L916.59 292.33L867.22 320.83L817.86 292.33L817.86 235.33zM1064.68 35.83L1114.05 64.33L1114.05 121.33L1064.68 149.83L1015.32 121.33L1015.32 64.33zM1015.32 292.33L1064.68 320.83L1064.68 377.83L1015.32 406.33L965.95 377.83L965.95 320.83zM1114.05 121.33L1163.41 149.83L1163.41 206.83L1114.05 235.33L1064.68 206.83L1064.68 149.83zM1163.41 206.83L1212.78 235.33L1212.78 292.33L1163.41 320.83L1114.05 292.33L1114.05 235.33zM1212.78 121.33L1262.14 149.83L1262.14 206.83L1212.78 235.33L1163.41 206.83L1163.41 149.83zM1212.78 292.33L1262.14 320.83L1262.14 377.83L1212.78 406.33L1163.41 377.83L1163.41 320.83zM1212.78 463.33L1262.14 491.83L1262.14 548.83L1212.78 577.33L1163.41 548.83L1163.41 491.83zM1311.51 463.33L1360.87 491.83L1360.87 548.83L1311.51 577.33L1262.14 548.83L1262.14 491.83zM1360.87 548.83L1410.24 577.33L1410.24 634.33L1360.87 662.83L1311.51 634.33L1311.51 577.33zM1410.24 -49.67L1459.6 -21.17L1459.6 35.83L1410.24 64.33L1360.87 35.83L1360.87 -21.17zM1459.6 206.83L1508.97 235.33L1508.97 292.33L1459.6 320.83L1410.24 292.33L1410.24 235.33z" stroke="rgba(22, 30, 114, 1)" stroke-width="2"></path><path d="M22.32 121.33 a5.7 5.7 0 1 0 11.4 0 a5.7 5.7 0 1 0 -11.4 0zM71.68 149.83 a5.7 5.7 0 1 0 11.4 0 a5.7 5.7 0 1 0 -11.4 0zM71.68 206.83 a5.7 5.7 0 1 0 11.4 0 a5.7 5.7 0 1 0 -11.4 0zM22.32 235.33 a5.7 5.7 0 1 0 11.4 0 a5.7 5.7 0 1 0 -11.4 0zM-27.04 206.83 a5.7 5.7 0 1 0 11.4 0 a5.7 5.7 0 1 0 -11.4 0zM-27.04 149.83 a5.7 5.7 0 1 0 11.4 0 a5.7 5.7 0 1 0 -11.4 0zM22.32 463.33 a5.7 5.7 0 1 0 11.4 0 a5.7 5.7 0 1 0 -11.4 0zM71.68 491.83 a5.7 5.7 0 1 0 11.4 0 a5.7 5.7 0 1 0 -11.4 0zM71.68 548.83 a5.7 5.7 0 1 0 11.4 0 a5.7 5.7 0 1 0 -11.4 0zM22.32 577.33 a5.7 5.7 0 1 0 11.4 0 a5.7 5.7 0 1 0 -11.4 0zM-27.04 548.83 a5.7 5.7 0 1 0 11.4 0 a5.7 5.7 0 1 0 -11.4 0zM-27.04 491.83 a5.7 5.7 0 1 0 11.4 0 a5.7 5.7 0 1 0 -11.4 0zM170.41 377.83 a5.7 5.7 0 1 0 11.4 0 a5.7 5.7 0 1 0 -11.4 0zM219.78 406.33 a5.7 5.7 0 1 0 11.4 0 a5.7 5.7 0 1 0 -11.4 0zM219.78 463.33 a5.7 5.7 0 1 0 11.4 0 a5.7 5.7 0 1 0 -11.4 0zM170.41 491.83 a5.7 5.7 0 1 0 11.4 0 a5.7 5.7 0 1 0 -11.4 0zM121.05 463.33 a5.7 5.7 0 1 0 11.4 0 a5.7 5.7 0 1 0 -11.4 0zM121.05 406.33 a5.7 5.7 0 1 0 11.4 0 a5.7 5.7 0 1 0 -11.4 0zM269.14 206.83 a5.7 5.7 0 1 0 11.4 0 a5.7 5.7 0 1 0 -11.4 0zM318.51 235.33 a5.7 5.7 0 1 0 11.4 0 a5.7 5.7 0 1 0 -11.4 0zM318.51 292.33 a5.7 5.7 0 1 0 11.4 0 a5.7 5.7 0 1 0 -11.4 0zM269.14 320.83 a5.7 5.7 0 1 0 11.4 0 a5.7 5.7 0 1 0 -11.4 0zM219.78 292.33 a5.7 5.7 0 1 0 11.4 0 a5.7 5.7 0 1 0 -11.4 0zM219.78 235.33 a5.7 5.7 0 1 0 11.4 0 a5.7 5.7 0 1 0 -11.4 0zM269.14 377.83 a5.7 5.7 0 1 0 11.4 0 a5.7 5.7 0 1 0 -11.4 0zM170.41 320.83 a5.7 5.7 0 1 0 11.4 0 a5.7 5.7 0 1 0 -11.4 0zM367.87 35.83 a5.7 5.7 0 1 0 11.4 0 a5.7 5.7 0 1 0 -11.4 0zM417.24 64.33 a5.7 5.7 0 1 0 11.4 0 a5.7 5.7 0 1 0 -11.4 0zM417.24 121.33 a5.7 5.7 0 1 0 11.4 0 a5.7 5.7 0 1 0 -11.4 0zM367.87 149.83 a5.7 5.7 0 1 0 11.4 0 a5.7 5.7 0 1 0 -11.4 0zM318.51 121.33 a5.7 5.7 0 1 0 11.4 0 a5.7 5.7 0 1 0 -11.4 0zM318.51 64.33 a5.7 5.7 0 1 0 11.4 0 a5.7 5.7 0 1 0 -11.4 0zM367.87 206.83 a5.7 5.7 0 1 0 11.4 0 a5.7 5.7 0 1 0 -11.4 0zM269.14 149.83 a5.7 5.7 0 1 0 11.4 0 a5.7 5.7 0 1 0 -11.4 0zM318.51 463.33 a5.7 5.7 0 1 0 11.4 0 a5.7 5.7 0 1 0 -11.4 0zM367.87 491.83 a5.7 5.7 0 1 0 11.4 0 a5.7 5.7 0 1 0 -11.4 0zM367.87 548.83 a5.7 5.7 0 1 0 11.4 0 a5.7 5.7 0 1 0 -11.4 0zM318.51 577.33 a5.7 5.7 0 1 0 11.4 0 a5.7 5.7 0 1 0 -11.4 0zM269.14 548.83 a5.7 5.7 0 1 0 11.4 0 a5.7 5.7 0 1 0 -11.4 0zM269.14 491.83 a5.7 5.7 0 1 0 11.4 0 a5.7 5.7 0 1 0 -11.4 0zM417.24 577.33 a5.7 5.7 0 1 0 11.4 0 a5.7 5.7 0 1 0 -11.4 0zM417.24 634.33 a5.7 5.7 0 1 0 11.4 0 a5.7 5.7 0 1 0 -11.4 0zM367.87 662.83 a5.7 5.7 0 1 0 11.4 0 a5.7 5.7 0 1 0 -11.4 0zM318.51 634.33 a5.7 5.7 0 1 0 11.4 0 a5.7 5.7 0 1 0 -11.4 0zM466.6 149.83 a5.7 5.7 0 1 0 11.4 0 a5.7 5.7 0 1 0 -11.4 0zM466.6 206.83 a5.7 5.7 0 1 0 11.4 0 a5.7 5.7 0 1 0 -11.4 0zM417.24 235.33 a5.7 5.7 0 1 0 11.4 0 a5.7 5.7 0 1 0 -11.4 0zM565.33 206.83 a5.7 5.7 0 1 0 11.4 0 a5.7 5.7 0 1 0 -11.4 0zM614.7 235.33 a5.7 5.7 0 1 0 11.4 0 a5.7 5.7 0 1 0 -11.4 0zM614.7 292.33 a5.7 5.7 0 1 0 11.4 0 a5.7 5.7 0 1 0 -11.4 0zM565.33 320.83 a5.7 5.7 0 1 0 11.4 0 a5.7 5.7 0 1 0 -11.4 0zM515.97 292.33 a5.7 5.7 0 1 0 11.4 0 a5.7 5.7 0 1 0 -11.4 0zM515.97 235.33 a5.7 5.7 0 1 0 11.4 0 a5.7 5.7 0 1 0 -11.4 0zM515.97 463.33 a5.7 5.7 0 1 0 11.4 0 a5.7 5.7 0 1 0 -11.4 0zM565.33 491.83 a5.7 5.7 0 1 0 11.4 0 a5.7 5.7 0 1 0 -11.4 0zM565.33 548.83 a5.7 5.7 0 1 0 11.4 0 a5.7 5.7 0 1 0 -11.4 0zM515.97 577.33 a5.7 5.7 0 1 0 11.4 0 a5.7 5.7 0 1 0 -11.4 0zM466.6 548.83 a5.7 5.7 0 1 0 11.4 0 a5.7 5.7 0 1 0 -11.4 0zM466.6 491.83 a5.7 5.7 0 1 0 11.4 0 a5.7 5.7 0 1 0 -11.4 0zM664.06 206.83 a5.7 5.7 0 1 0 11.4 0 a5.7 5.7 0 1 0 -11.4 0zM713.43 235.33 a5.7 5.7 0 1 0 11.4 0 a5.7 5.7 0 1 0 -11.4 0zM713.43 292.33 a5.7 5.7 0 1 0 11.4 0 a5.7 5.7 0 1 0 -11.4 0zM664.06 320.83 a5.7 5.7 0 1 0 11.4 0 a5.7 5.7 0 1 0 -11.4 0zM762.79 35.83 a5.7 5.7 0 1 0 11.4 0 a5.7 5.7 0 1 0 -11.4 0zM812.16 64.33 a5.7 5.7 0 1 0 11.4 0 a5.7 5.7 0 1 0 -11.4 0zM812.16 121.33 a5.7 5.7 0 1 0 11.4 0 a5.7 5.7 0 1 0 -11.4 0zM762.79 149.83 a5.7 5.7 0 1 0 11.4 0 a5.7 5.7 0 1 0 -11.4 0zM713.43 121.33 a5.7 5.7 0 1 0 11.4 0 a5.7 5.7 0 1 0 -11.4 0zM713.43 64.33 a5.7 5.7 0 1 0 11.4 0 a5.7 5.7 0 1 0 -11.4 0zM713.43 463.33 a5.7 5.7 0 1 0 11.4 0 a5.7 5.7 0 1 0 -11.4 0zM762.79 491.83 a5.7 5.7 0 1 0 11.4 0 a5.7 5.7 0 1 0 -11.4 0zM762.79 548.83 a5.7 5.7 0 1 0 11.4 0 a5.7 5.7 0 1 0 -11.4 0zM713.43 577.33 a5.7 5.7 0 1 0 11.4 0 a5.7 5.7 0 1 0 -11.4 0zM664.06 548.83 a5.7 5.7 0 1 0 11.4 0 a5.7 5.7 0 1 0 -11.4 0zM664.06 491.83 a5.7 5.7 0 1 0 11.4 0 a5.7 5.7 0 1 0 -11.4 0zM861.52 206.83 a5.7 5.7 0 1 0 11.4 0 a5.7 5.7 0 1 0 -11.4 0zM910.89 235.33 a5.7 5.7 0 1 0 11.4 0 a5.7 5.7 0 1 0 -11.4 0zM910.89 292.33 a5.7 5.7 0 1 0 11.4 0 a5.7 5.7 0 1 0 -11.4 0zM861.52 320.83 a5.7 5.7 0 1 0 11.4 0 a5.7 5.7 0 1 0 -11.4 0zM812.16 292.33 a5.7 5.7 0 1 0 11.4 0 a5.7 5.7 0 1 0 -11.4 0zM812.16 235.33 a5.7 5.7 0 1 0 11.4 0 a5.7 5.7 0 1 0 -11.4 0zM1058.98 35.83 a5.7 5.7 0 1 0 11.4 0 a5.7 5.7 0 1 0 -11.4 0zM1108.35 64.33 a5.7 5.7 0 1 0 11.4 0 a5.7 5.7 0 1 0 -11.4 0zM1108.35 121.33 a5.7 5.7 0 1 0 11.4 0 a5.7 5.7 0 1 0 -11.4 0zM1058.98 149.83 a5.7 5.7 0 1 0 11.4 0 a5.7 5.7 0 1 0 -11.4 0zM1009.62 121.33 a5.7 5.7 0 1 0 11.4 0 a5.7 5.7 0 1 0 -11.4 0zM1009.62 64.33 a5.7 5.7 0 1 0 11.4 0 a5.7 5.7 0 1 0 -11.4 0zM1009.62 292.33 a5.7 5.7 0 1 0 11.4 0 a5.7 5.7 0 1 0 -11.4 0zM1058.98 320.83 a5.7 5.7 0 1 0 11.4 0 a5.7 5.7 0 1 0 -11.4 0zM1058.98 377.83 a5.7 5.7 0 1 0 11.4 0 a5.7 5.7 0 1 0 -11.4 0zM1009.62 406.33 a5.7 5.7 0 1 0 11.4 0 a5.7 5.7 0 1 0 -11.4 0zM960.25 377.83 a5.7 5.7 0 1 0 11.4 0 a5.7 5.7 0 1 0 -11.4 0zM960.25 320.83 a5.7 5.7 0 1 0 11.4 0 a5.7 5.7 0 1 0 -11.4 0zM1157.71 149.83 a5.7 5.7 0 1 0 11.4 0 a5.7 5.7 0 1 0 -11.4 0zM1157.71 206.83 a5.7 5.7 0 1 0 11.4 0 a5.7 5.7 0 1 0 -11.4 0zM1108.35 235.33 a5.7 5.7 0 1 0 11.4 0 a5.7 5.7 0 1 0 -11.4 0zM1058.98 206.83 a5.7 5.7 0 1 0 11.4 0 a5.7 5.7 0 1 0 -11.4 0zM1207.08 235.33 a5.7 5.7 0 1 0 11.4 0 a5.7 5.7 0 1 0 -11.4 0zM1207.08 292.33 a5.7 5.7 0 1 0 11.4 0 a5.7 5.7 0 1 0 -11.4 0zM1157.71 320.83 a5.7 5.7 0 1 0 11.4 0 a5.7 5.7 0 1 0 -11.4 0zM1108.35 292.33 a5.7 5.7 0 1 0 11.4 0 a5.7 5.7 0 1 0 -11.4 0zM1207.08 121.33 a5.7 5.7 0 1 0 11.4 0 a5.7 5.7 0 1 0 -11.4 0zM1256.44 149.83 a5.7 5.7 0 1 0 11.4 0 a5.7 5.7 0 1 0 -11.4 0zM1256.44 206.83 a5.7 5.7 0 1 0 11.4 0 a5.7 5.7 0 1 0 -11.4 0zM1256.44 320.83 a5.7 5.7 0 1 0 11.4 0 a5.7 5.7 0 1 0 -11.4 0zM1256.44 377.83 a5.7 5.7 0 1 0 11.4 0 a5.7 5.7 0 1 0 -11.4 0zM1207.08 406.33 a5.7 5.7 0 1 0 11.4 0 a5.7 5.7 0 1 0 -11.4 0zM1157.71 377.83 a5.7 5.7 0 1 0 11.4 0 a5.7 5.7 0 1 0 -11.4 0zM1207.08 463.33 a5.7 5.7 0 1 0 11.4 0 a5.7 5.7 0 1 0 -11.4 0zM1256.44 491.83 a5.7 5.7 0 1 0 11.4 0 a5.7 5.7 0 1 0 -11.4 0zM1256.44 548.83 a5.7 5.7 0 1 0 11.4 0 a5.7 5.7 0 1 0 -11.4 0zM1207.08 577.33 a5.7 5.7 0 1 0 11.4 0 a5.7 5.7 0 1 0 -11.4 0zM1157.71 548.83 a5.7 5.7 0 1 0 11.4 0 a5.7 5.7 0 1 0 -11.4 0zM1157.71 491.83 a5.7 5.7 0 1 0 11.4 0 a5.7 5.7 0 1 0 -11.4 0zM1305.81 463.33 a5.7 5.7 0 1 0 11.4 0 a5.7 5.7 0 1 0 -11.4 0zM1355.17 491.83 a5.7 5.7 0 1 0 11.4 0 a5.7 5.7 0 1 0 -11.4 0zM1355.17 548.83 a5.7 5.7 0 1 0 11.4 0 a5.7 5.7 0 1 0 -11.4 0zM1305.81 577.33 a5.7 5.7 0 1 0 11.4 0 a5.7 5.7 0 1 0 -11.4 0zM1404.54 577.33 a5.7 5.7 0 1 0 11.4 0 a5.7 5.7 0 1 0 -11.4 0zM1404.54 634.33 a5.7 5.7 0 1 0 11.4 0 a5.7 5.7 0 1 0 -11.4 0zM1355.17 662.83 a5.7 5.7 0 1 0 11.4 0 a5.7 5.7 0 1 0 -11.4 0zM1305.81 634.33 a5.7 5.7 0 1 0 11.4 0 a5.7 5.7 0 1 0 -11.4 0zM1404.54 -49.67 a5.7 5.7 0 1 0 11.4 0 a5.7 5.7 0 1 0 -11.4 0zM1453.9 -21.17 a5.7 5.7 0 1 0 11.4 0 a5.7 5.7 0 1 0 -11.4 0zM1453.9 35.83 a5.7 5.7 0 1 0 11.4 0 a5.7 5.7 0 1 0 -11.4 0zM1404.54 64.33 a5.7 5.7 0 1 0 11.4 0 a5.7 5.7 0 1 0 -11.4 0zM1355.17 35.83 a5.7 5.7 0 1 0 11.4 0 a5.7 5.7 0 1 0 -11.4 0zM1355.17 -21.17 a5.7 5.7 0 1 0 11.4 0 a5.7 5.7 0 1 0 -11.4 0zM1453.9 206.83 a5.7 5.7 0 1 0 11.4 0 a5.7 5.7 0 1 0 -11.4 0zM1503.27 235.33 a5.7 5.7 0 1 0 11.4 0 a5.7 5.7 0 1 0 -11.4 0zM1503.27 292.33 a5.7 5.7 0 1 0 11.4 0 a5.7 5.7 0 1 0 -11.4 0zM1453.9 320.83 a5.7 5.7 0 1 0 11.4 0 a5.7 5.7 0 1 0 -11.4 0zM1404.54 292.33 a5.7 5.7 0 1 0 11.4 0 a5.7 5.7 0 1 0 -11.4 0zM1404.54 235.33 a5.7 5.7 0 1 0 11.4 0 a5.7 5.7 0 1 0 -11.4 0z" fill="rgba(22, 30, 114, 1)"></path><path d="M0.62 207.79L65.57 245.29L65.57 320.29L0.62 357.79L-64.33 320.29L-64.33 245.29zM0.62 432.79L65.57 470.29L65.57 545.29L0.62 582.79L-64.33 545.29L-64.33 470.29zM260.44 -17.21L325.39 20.29L325.39 95.29L260.44 132.79L195.48 95.29L195.48 20.29zM325.39 95.29L390.34 132.79L390.34 207.79L325.39 245.29L260.44 207.79L260.44 132.79zM325.39 545.29L390.34 582.79L390.34 657.79L325.39 695.29L260.44 657.79L260.44 582.79zM390.34 -17.21L455.3 20.29L455.3 95.29L390.34 132.79L325.39 95.29L325.39 20.29zM390.34 432.79L455.3 470.29L455.3 545.29L390.34 582.79L325.39 545.29L325.39 470.29zM455.3 545.29L520.25 582.79L520.25 657.79L455.3 695.29L390.34 657.79L390.34 582.79zM520.25 -17.21L585.2 20.29L585.2 95.29L520.25 132.79L455.3 95.29L455.3 20.29zM585.2 95.29L650.16 132.79L650.16 207.79L585.2 245.29L520.25 207.79L520.25 132.79zM650.16 -17.21L715.11 20.29L715.11 95.29L650.16 132.79L585.2 95.29L585.2 20.29zM715.11 545.29L780.07 582.79L780.07 657.79L715.11 695.29L650.16 657.79L650.16 582.79zM780.06 -17.21L845.02 20.29L845.02 95.29L780.06 132.79L715.11 95.29L715.11 20.29zM845.02 95.29L909.97 132.79L909.97 207.79L845.02 245.29L780.06 207.79L780.06 132.79zM780.06 207.79L845.02 245.29L845.02 320.29L780.06 357.79L715.11 320.29L715.11 245.29zM780.06 432.79L845.02 470.29L845.02 545.29L780.06 582.79L715.11 545.29L715.11 470.29zM974.93 95.29L1039.88 132.79L1039.88 207.79L974.93 245.29L909.97 207.79L909.97 132.79zM1039.88 -17.21L1104.83 20.29L1104.83 95.29L1039.88 132.79L974.93 95.29L974.93 20.29zM1039.88 207.79L1104.83 245.29L1104.83 320.29L1039.88 357.79L974.93 320.29L974.93 245.29zM1104.83 320.29L1169.79 357.79L1169.79 432.79L1104.83 470.29L1039.88 432.79L1039.88 357.79zM1169.79 207.79L1234.74 245.29L1234.74 320.29L1169.79 357.79L1104.83 320.29L1104.83 245.29zM1234.74 320.29L1299.69 357.79L1299.69 432.79L1234.74 470.29L1169.79 432.79L1169.79 357.79zM1169.79 432.79L1234.74 470.29L1234.74 545.29L1169.79 582.79L1104.83 545.29L1104.83 470.29zM1364.65 95.29L1429.6 132.79L1429.6 207.79L1364.65 245.29L1299.69 207.79L1299.69 132.79zM1299.69 207.79L1364.65 245.29L1364.65 320.29L1299.69 357.79L1234.74 320.29L1234.74 245.29zM1299.69 432.79L1364.65 470.29L1364.65 545.29L1299.69 582.79L1234.74 545.29L1234.74 470.29zM1364.65 545.29L1429.6 582.79L1429.6 657.79L1364.65 695.29L1299.69 657.79L1299.69 582.79zM1494.56 320.29L1559.51 357.79L1559.51 432.79L1494.56 470.29L1429.6 432.79L1429.6 357.79zM1494.56 545.29L1559.51 582.79L1559.51 657.79L1494.56 695.29L1429.6 657.79L1429.6 582.79z" stroke="#03305d" stroke-width="2"></path><path d="M-6.88 207.79 a7.5 7.5 0 1 0 15 0 a7.5 7.5 0 1 0 -15 0zM58.07 245.29 a7.5 7.5 0 1 0 15 0 a7.5 7.5 0 1 0 -15 0zM58.07 320.29 a7.5 7.5 0 1 0 15 0 a7.5 7.5 0 1 0 -15 0zM-6.88 357.79 a7.5 7.5 0 1 0 15 0 a7.5 7.5 0 1 0 -15 0zM-71.83 320.29 a7.5 7.5 0 1 0 15 0 a7.5 7.5 0 1 0 -15 0zM-71.83 245.29 a7.5 7.5 0 1 0 15 0 a7.5 7.5 0 1 0 -15 0zM-6.88 432.79 a7.5 7.5 0 1 0 15 0 a7.5 7.5 0 1 0 -15 0zM58.07 470.29 a7.5 7.5 0 1 0 15 0 a7.5 7.5 0 1 0 -15 0zM58.07 545.29 a7.5 7.5 0 1 0 15 0 a7.5 7.5 0 1 0 -15 0zM-6.88 582.79 a7.5 7.5 0 1 0 15 0 a7.5 7.5 0 1 0 -15 0zM-71.83 545.29 a7.5 7.5 0 1 0 15 0 a7.5 7.5 0 1 0 -15 0zM-71.83 470.29 a7.5 7.5 0 1 0 15 0 a7.5 7.5 0 1 0 -15 0zM252.94 -17.21 a7.5 7.5 0 1 0 15 0 a7.5 7.5 0 1 0 -15 0zM317.89 20.29 a7.5 7.5 0 1 0 15 0 a7.5 7.5 0 1 0 -15 0zM317.89 95.29 a7.5 7.5 0 1 0 15 0 a7.5 7.5 0 1 0 -15 0zM252.94 132.79 a7.5 7.5 0 1 0 15 0 a7.5 7.5 0 1 0 -15 0zM187.98 95.29 a7.5 7.5 0 1 0 15 0 a7.5 7.5 0 1 0 -15 0zM187.98 20.29 a7.5 7.5 0 1 0 15 0 a7.5 7.5 0 1 0 -15 0zM382.84 132.79 a7.5 7.5 0 1 0 15 0 a7.5 7.5 0 1 0 -15 0zM382.84 207.79 a7.5 7.5 0 1 0 15 0 a7.5 7.5 0 1 0 -15 0zM317.89 245.29 a7.5 7.5 0 1 0 15 0 a7.5 7.5 0 1 0 -15 0zM252.94 207.79 a7.5 7.5 0 1 0 15 0 a7.5 7.5 0 1 0 -15 0zM317.89 545.29 a7.5 7.5 0 1 0 15 0 a7.5 7.5 0 1 0 -15 0zM382.84 582.79 a7.5 7.5 0 1 0 15 0 a7.5 7.5 0 1 0 -15 0zM382.84 657.79 a7.5 7.5 0 1 0 15 0 a7.5 7.5 0 1 0 -15 0zM317.89 695.29 a7.5 7.5 0 1 0 15 0 a7.5 7.5 0 1 0 -15 0zM252.94 657.79 a7.5 7.5 0 1 0 15 0 a7.5 7.5 0 1 0 -15 0zM252.94 582.79 a7.5 7.5 0 1 0 15 0 a7.5 7.5 0 1 0 -15 0zM382.84 -17.21 a7.5 7.5 0 1 0 15 0 a7.5 7.5 0 1 0 -15 0zM447.8 20.29 a7.5 7.5 0 1 0 15 0 a7.5 7.5 0 1 0 -15 0zM447.8 95.29 a7.5 7.5 0 1 0 15 0 a7.5 7.5 0 1 0 -15 0zM382.84 432.79 a7.5 7.5 0 1 0 15 0 a7.5 7.5 0 1 0 -15 0zM447.8 470.29 a7.5 7.5 0 1 0 15 0 a7.5 7.5 0 1 0 -15 0zM447.8 545.29 a7.5 7.5 0 1 0 15 0 a7.5 7.5 0 1 0 -15 0zM317.89 470.29 a7.5 7.5 0 1 0 15 0 a7.5 7.5 0 1 0 -15 0zM512.75 582.79 a7.5 7.5 0 1 0 15 0 a7.5 7.5 0 1 0 -15 0zM512.75 657.79 a7.5 7.5 0 1 0 15 0 a7.5 7.5 0 1 0 -15 0zM447.8 695.29 a7.5 7.5 0 1 0 15 0 a7.5 7.5 0 1 0 -15 0zM512.75 -17.21 a7.5 7.5 0 1 0 15 0 a7.5 7.5 0 1 0 -15 0zM577.7 20.29 a7.5 7.5 0 1 0 15 0 a7.5 7.5 0 1 0 -15 0zM577.7 95.29 a7.5 7.5 0 1 0 15 0 a7.5 7.5 0 1 0 -15 0zM512.75 132.79 a7.5 7.5 0 1 0 15 0 a7.5 7.5 0 1 0 -15 0zM642.66 132.79 a7.5 7.5 0 1 0 15 0 a7.5 7.5 0 1 0 -15 0zM642.66 207.79 a7.5 7.5 0 1 0 15 0 a7.5 7.5 0 1 0 -15 0zM577.7 245.29 a7.5 7.5 0 1 0 15 0 a7.5 7.5 0 1 0 -15 0zM512.75 207.79 a7.5 7.5 0 1 0 15 0 a7.5 7.5 0 1 0 -15 0zM642.66 -17.21 a7.5 7.5 0 1 0 15 0 a7.5 7.5 0 1 0 -15 0zM707.61 20.29 a7.5 7.5 0 1 0 15 0 a7.5 7.5 0 1 0 -15 0zM707.61 95.29 a7.5 7.5 0 1 0 15 0 a7.5 7.5 0 1 0 -15 0zM707.61 545.29 a7.5 7.5 0 1 0 15 0 a7.5 7.5 0 1 0 -15 0zM772.57 582.79 a7.5 7.5 0 1 0 15 0 a7.5 7.5 0 1 0 -15 0zM772.57 657.79 a7.5 7.5 0 1 0 15 0 a7.5 7.5 0 1 0 -15 0zM707.61 695.29 a7.5 7.5 0 1 0 15 0 a7.5 7.5 0 1 0 -15 0zM642.66 657.79 a7.5 7.5 0 1 0 15 0 a7.5 7.5 0 1 0 -15 0zM642.66 582.79 a7.5 7.5 0 1 0 15 0 a7.5 7.5 0 1 0 -15 0zM772.56 -17.21 a7.5 7.5 0 1 0 15 0 a7.5 7.5 0 1 0 -15 0zM837.52 20.29 a7.5 7.5 0 1 0 15 0 a7.5 7.5 0 1 0 -15 0zM837.52 95.29 a7.5 7.5 0 1 0 15 0 a7.5 7.5 0 1 0 -15 0zM772.56 132.79 a7.5 7.5 0 1 0 15 0 a7.5 7.5 0 1 0 -15 0zM902.47 132.79 a7.5 7.5 0 1 0 15 0 a7.5 7.5 0 1 0 -15 0zM902.47 207.79 a7.5 7.5 0 1 0 15 0 a7.5 7.5 0 1 0 -15 0zM837.52 245.29 a7.5 7.5 0 1 0 15 0 a7.5 7.5 0 1 0 -15 0zM772.56 207.79 a7.5 7.5 0 1 0 15 0 a7.5 7.5 0 1 0 -15 0zM837.52 320.29 a7.5 7.5 0 1 0 15 0 a7.5 7.5 0 1 0 -15 0zM772.56 357.79 a7.5 7.5 0 1 0 15 0 a7.5 7.5 0 1 0 -15 0zM707.61 320.29 a7.5 7.5 0 1 0 15 0 a7.5 7.5 0 1 0 -15 0zM707.61 245.29 a7.5 7.5 0 1 0 15 0 a7.5 7.5 0 1 0 -15 0zM772.56 432.79 a7.5 7.5 0 1 0 15 0 a7.5 7.5 0 1 0 -15 0zM837.52 470.29 a7.5 7.5 0 1 0 15 0 a7.5 7.5 0 1 0 -15 0zM837.52 545.29 a7.5 7.5 0 1 0 15 0 a7.5 7.5 0 1 0 -15 0zM772.56 582.79 a7.5 7.5 0 1 0 15 0 a7.5 7.5 0 1 0 -15 0zM707.61 470.29 a7.5 7.5 0 1 0 15 0 a7.5 7.5 0 1 0 -15 0zM967.43 95.29 a7.5 7.5 0 1 0 15 0 a7.5 7.5 0 1 0 -15 0zM1032.38 132.79 a7.5 7.5 0 1 0 15 0 a7.5 7.5 0 1 0 -15 0zM1032.38 207.79 a7.5 7.5 0 1 0 15 0 a7.5 7.5 0 1 0 -15 0zM967.43 245.29 a7.5 7.5 0 1 0 15 0 a7.5 7.5 0 1 0 -15 0zM1032.38 -17.21 a7.5 7.5 0 1 0 15 0 a7.5 7.5 0 1 0 -15 0zM1097.33 20.29 a7.5 7.5 0 1 0 15 0 a7.5 7.5 0 1 0 -15 0zM1097.33 95.29 a7.5 7.5 0 1 0 15 0 a7.5 7.5 0 1 0 -15 0zM967.43 20.29 a7.5 7.5 0 1 0 15 0 a7.5 7.5 0 1 0 -15 0zM1097.33 245.29 a7.5 7.5 0 1 0 15 0 a7.5 7.5 0 1 0 -15 0zM1097.33 320.29 a7.5 7.5 0 1 0 15 0 a7.5 7.5 0 1 0 -15 0zM1032.38 357.79 a7.5 7.5 0 1 0 15 0 a7.5 7.5 0 1 0 -15 0zM967.43 320.29 a7.5 7.5 0 1 0 15 0 a7.5 7.5 0 1 0 -15 0zM1162.29 357.79 a7.5 7.5 0 1 0 15 0 a7.5 7.5 0 1 0 -15 0zM1162.29 432.79 a7.5 7.5 0 1 0 15 0 a7.5 7.5 0 1 0 -15 0zM1097.33 470.29 a7.5 7.5 0 1 0 15 0 a7.5 7.5 0 1 0 -15 0zM1032.38 432.79 a7.5 7.5 0 1 0 15 0 a7.5 7.5 0 1 0 -15 0zM1162.29 207.79 a7.5 7.5 0 1 0 15 0 a7.5 7.5 0 1 0 -15 0zM1227.24 245.29 a7.5 7.5 0 1 0 15 0 a7.5 7.5 0 1 0 -15 0zM1227.24 320.29 a7.5 7.5 0 1 0 15 0 a7.5 7.5 0 1 0 -15 0zM1292.19 357.79 a7.5 7.5 0 1 0 15 0 a7.5 7.5 0 1 0 -15 0zM1292.19 432.79 a7.5 7.5 0 1 0 15 0 a7.5 7.5 0 1 0 -15 0zM1227.24 470.29 a7.5 7.5 0 1 0 15 0 a7.5 7.5 0 1 0 -15 0zM1227.24 545.29 a7.5 7.5 0 1 0 15 0 a7.5 7.5 0 1 0 -15 0zM1162.29 582.79 a7.5 7.5 0 1 0 15 0 a7.5 7.5 0 1 0 -15 0zM1097.33 545.29 a7.5 7.5 0 1 0 15 0 a7.5 7.5 0 1 0 -15 0zM1357.15 95.29 a7.5 7.5 0 1 0 15 0 a7.5 7.5 0 1 0 -15 0zM1422.1 132.79 a7.5 7.5 0 1 0 15 0 a7.5 7.5 0 1 0 -15 0zM1422.1 207.79 a7.5 7.5 0 1 0 15 0 a7.5 7.5 0 1 0 -15 0zM1357.15 245.29 a7.5 7.5 0 1 0 15 0 a7.5 7.5 0 1 0 -15 0zM1292.19 207.79 a7.5 7.5 0 1 0 15 0 a7.5 7.5 0 1 0 -15 0zM1292.19 132.79 a7.5 7.5 0 1 0 15 0 a7.5 7.5 0 1 0 -15 0zM1357.15 320.29 a7.5 7.5 0 1 0 15 0 a7.5 7.5 0 1 0 -15 0zM1357.15 470.29 a7.5 7.5 0 1 0 15 0 a7.5 7.5 0 1 0 -15 0zM1357.15 545.29 a7.5 7.5 0 1 0 15 0 a7.5 7.5 0 1 0 -15 0zM1292.19 582.79 a7.5 7.5 0 1 0 15 0 a7.5 7.5 0 1 0 -15 0zM1422.1 582.79 a7.5 7.5 0 1 0 15 0 a7.5 7.5 0 1 0 -15 0zM1422.1 657.79 a7.5 7.5 0 1 0 15 0 a7.5 7.5 0 1 0 -15 0zM1357.15 695.29 a7.5 7.5 0 1 0 15 0 a7.5 7.5 0 1 0 -15 0zM1292.19 657.79 a7.5 7.5 0 1 0 15 0 a7.5 7.5 0 1 0 -15 0zM1487.06 320.29 a7.5 7.5 0 1 0 15 0 a7.5 7.5 0 1 0 -15 0zM1552.01 357.79 a7.5 7.5 0 1 0 15 0 a7.5 7.5 0 1 0 -15 0zM1552.01 432.79 a7.5 7.5 0 1 0 15 0 a7.5 7.5 0 1 0 -15 0zM1487.06 470.29 a7.5 7.5 0 1 0 15 0 a7.5 7.5 0 1 0 -15 0zM1422.1 432.79 a7.5 7.5 0 1 0 15 0 a7.5 7.5 0 1 0 -15 0zM1422.1 357.79 a7.5 7.5 0 1 0 15 0 a7.5 7.5 0 1 0 -15 0zM1487.06 545.29 a7.5 7.5 0 1 0 15 0 a7.5 7.5 0 1 0 -15 0zM1552.01 582.79 a7.5 7.5 0 1 0 15 0 a7.5 7.5 0 1 0 -15 0zM1552.01 657.79 a7.5 7.5 0 1 0 15 0 a7.5 7.5 0 1 0 -15 0zM1487.06 695.29 a7.5 7.5 0 1 0 15 0 a7.5 7.5 0 1 0 -15 0z" fill="#03305d"></path><path d="M78.87 36.44L120.44 60.44L120.44 108.44L78.87 132.44L37.3 108.44L37.3 60.44zM37.3 540.44L78.87 564.44L78.87 612.44L37.3 636.44L-4.27 612.44L-4.27 564.44zM120.44 -35.56L162.01 -11.56L162.01 36.44L120.44 60.44L78.87 36.44L78.87 -11.56zM162.01 324.44L203.58 348.44L203.58 396.44L162.01 420.44L120.44 396.44L120.44 348.44zM162.01 468.44L203.58 492.44L203.58 540.44L162.01 564.44L120.44 540.44L120.44 492.44zM203.58 108.44L245.15 132.44L245.15 180.44L203.58 204.44L162.01 180.44L162.01 132.44zM203.58 396.44L245.15 420.44L245.15 468.44L203.58 492.44L162.01 468.44L162.01 420.44zM286.72 108.44L328.29 132.44L328.29 180.44L286.72 204.44L245.15 180.44L245.15 132.44zM328.29 180.44L369.86 204.44L369.86 252.44L328.29 276.44L286.72 252.44L286.72 204.44zM286.72 396.44L328.29 420.44L328.29 468.44L286.72 492.44L245.15 468.44L245.15 420.44zM369.86 -35.56L411.43 -11.56L411.43 36.44L369.86 60.44L328.29 36.44L328.29 -11.56zM369.86 252.44L411.43 276.44L411.43 324.44L369.86 348.44L328.29 324.44L328.29 276.44zM369.86 540.44L411.43 564.44L411.43 612.44L369.86 636.44L328.29 612.44L328.29 564.44zM453 -35.56L494.57 -11.56L494.57 36.44L453 60.44L411.43 36.44L411.43 -11.56zM494.57 180.44L536.14 204.44L536.14 252.44L494.57 276.44L453 252.44L453 204.44zM453 252.44L494.57 276.44L494.57 324.44L453 348.44L411.43 324.44L411.43 276.44zM536.14 108.44L577.72 132.44L577.72 180.44L536.14 204.44L494.57 180.44L494.57 132.44zM536.14 252.44L577.72 276.44L577.72 324.44L536.14 348.44L494.57 324.44L494.57 276.44zM619.29 252.44L660.86 276.44L660.86 324.44L619.29 348.44L577.72 324.44L577.72 276.44zM660.86 324.44L702.43 348.44L702.43 396.44L660.86 420.44L619.29 396.44L619.29 348.44zM619.29 396.44L660.86 420.44L660.86 468.44L619.29 492.44L577.72 468.44L577.72 420.44zM702.43 -35.56L744 -11.56L744 36.44L702.43 60.44L660.86 36.44L660.86 -11.56zM702.43 108.44L744 132.44L744 180.44L702.43 204.44L660.86 180.44L660.86 132.44zM744 180.44L785.57 204.44L785.57 252.44L744 276.44L702.43 252.44L702.43 204.44zM702.43 540.44L744 564.44L744 612.44L702.43 636.44L660.86 612.44L660.86 564.44zM785.57 -35.56L827.14 -11.56L827.14 36.44L785.57 60.44L744 36.44L744 -11.56zM785.57 396.44L827.14 420.44L827.14 468.44L785.57 492.44L744 468.44L744 420.44zM827.14 468.44L868.71 492.44L868.71 540.44L827.14 564.44L785.57 540.44L785.57 492.44zM868.71 108.44L910.28 132.44L910.28 180.44L868.71 204.44L827.14 180.44L827.14 132.44zM868.71 396.44L910.28 420.44L910.28 468.44L868.71 492.44L827.14 468.44L827.14 420.44zM868.71 540.44L910.28 564.44L910.28 612.44L868.71 636.44L827.14 612.44L827.14 564.44zM993.42 36.44L1034.99 60.44L1034.99 108.44L993.42 132.44L951.85 108.44L951.85 60.44zM993.42 180.44L1034.99 204.44L1034.99 252.44L993.42 276.44L951.85 252.44L951.85 204.44zM951.85 252.44L993.42 276.44L993.42 324.44L951.85 348.44L910.28 324.44L910.28 276.44zM1076.56 36.44L1118.13 60.44L1118.13 108.44L1076.56 132.44L1034.99 108.44L1034.99 60.44zM1076.56 468.44L1118.13 492.44L1118.13 540.44L1076.56 564.44L1034.99 540.44L1034.99 492.44zM1034.99 540.44L1076.56 564.44L1076.56 612.44L1034.99 636.44L993.42 612.44L993.42 564.44zM1118.13 108.44L1159.7 132.44L1159.7 180.44L1118.13 204.44L1076.56 180.44L1076.56 132.44zM1159.7 324.44L1201.27 348.44L1201.27 396.44L1159.7 420.44L1118.13 396.44L1118.13 348.44zM1118.13 540.44L1159.7 564.44L1159.7 612.44L1118.13 636.44L1076.56 612.44L1076.56 564.44zM1201.27 540.44L1242.84 564.44L1242.84 612.44L1201.27 636.44L1159.7 612.44L1159.7 564.44zM1325.98 324.44L1367.55 348.44L1367.55 396.44L1325.98 420.44L1284.41 396.44L1284.41 348.44zM1284.41 540.44L1325.98 564.44L1325.98 612.44L1284.41 636.44L1242.84 612.44L1242.84 564.44zM1409.12 36.44L1450.69 60.44L1450.69 108.44L1409.12 132.44L1367.55 108.44L1367.55 60.44zM1367.55 108.44L1409.12 132.44L1409.12 180.44L1367.55 204.44L1325.98 180.44L1325.98 132.44zM1492.26 180.44L1533.83 204.44L1533.83 252.44L1492.26 276.44L1450.69 252.44L1450.69 204.44z" stroke="rgba(6, 80, 156, 0.93)" stroke-width="2"></path></g><defs><mask id="SvgjsMask1511"><rect width="1440" height="560" fill="#ffffff"></rect></mask><linearGradient x1="220.03199999999998" y1="-220.02399999999997" x2="1219.9679999999998" y2="780.024" gradientUnits="userSpaceOnUse" id="SvgjsLinearGradient1512"><stop stop-color="#0e2a47" offset="0"></stop><stop stop-color="rgba(59, 81, 111, 1)" offset="1"></stop></linearGradient></defs></svg>